PathFileType	4	(X/Y/Z)	OpenSim_Sub11_CSPreOp_Gyro.trc
DataRate	CameraRate	NumFrames	NumMarkers	Units	OrigDataRate	OrigDataStartFrame	OrigNumFrames
100	100	27	8	m	100	1	3701
Frame#	Time	torso_imu_offset_imu	pelvis_imu_offset_imu	tibia_r_imu_offset_imu	femur_r_imu_offset_imu	tibia_l_imu_offset_imu	femur_l_imu_offset_imu	toes_r_imu_offset_imu	toes_l_imu_offset_imu
				X1	Y1	Z1	X2	Y2	Z2	X3	Y3	Z3	X4	Y4	Z4	X5	Y5	Z5	X6	Y6	Z6	X7	Y7	Z7	X8		Y8	Z8	

1	0	-0.03467900	0.04181300	0.02554000	0.00993400	-0.02145700	-0.00760500	-0.02136300	0.03054600	-0.01135300	-0.01775200	0.00459900	0.00737100	0.01608300	-0.00857700	-0.01675500	0.01105200	-0.00689200	-0.02463900	-0.01190500	-0.00194300	0.01721300	0.00655300	-0.00428500	-0.00415200
2	0.01000000	-0.03570100	0.04038400	0.02223900	0.01433000	-0.02072200	-0.00818900	-0.01269300	0.03216600	-0.01682300	-0.01447400	0.00729200	0.00354600	0.01809700	-0.01002000	-0.01306500	0.01711800	-0.00172100	-0.02673500	-0.00930800	-0.00242000	0.01737000	0.00795700	-0.00504500	-0.00173100
3	0.02000000	-0.03445400	0.04293600	0.01864100	0.02281000	-0.02085300	-0.00787900	-0.00576200	0.02878800	-0.01265100	-0.00420400	0.00394300	0.00515900	0.02050600	-0.01090400	-0.01220200	0.02637800	0.00143100	-0.02670400	-0.00541900	-0.00157700	0.01461000	0.00581200	-0.00604900	-0.00132400
4	0.03000000	-0.02981900	0.04022900	0.02200100	0.02397500	-0.02119100	-0.00384600	-0.00585200	0.02562300	-0.01394100	0.00697300	0.00044500	0.00381800	0.02713400	-0.00872500	-0.01389500	0.03631100	0.00288000	-0.02805100	-0.00724500	-0.00229200	0.01152100	0.00482400	-0.00401000	-0.00447800
5	0.04000000	-0.02512900	0.03994500	0.01935200	0.02919700	-0.02392900	-0.00304900	-0.00809100	0.02091500	-0.01340500	0.00974000	-0.00325700	-0.00179400	0.02931400	-0.00852500	-0.01117900	0.04130700	0.00486200	-0.02615400	0.00092700	-0.00275600	0.00753500	0.00336800	-0.00134700	-0.00071300
6	0.05000000	-0.02387700	0.04249600	0.01575500	0.03232900	-0.01983100	0.00338500	0.00546000	0.02464000	-0.01185500	0.01382000	0.00415800	-0.00050300	0.03103100	-0.00895600	-0.01449700	0.04740400	0.00487800	-0.02825900	-0.00360700	0.00224700	0.01170600	0.00687900	-0.00380200	-0.00624800
7	0.06000000	-0.01556400	0.04257700	0.02034300	0.03851600	-0.01623400	0.00387100	0.01866700	0.01956600	-0.01574100	0.01496700	0.00558700	-0.00338000	0.03119700	-0.00731800	-0.01546900	0.05122500	0.00376400	-0.03262100	0.00100500	0.00296500	0.01272100	0.00804900	-0.00424800	-0.00036700
8	0.07000000	-0.01516900	0.03996000	0.01856000	0.03477000	-0.02201300	0.00451500	0.02081500	0.02110800	-0.01756300	0.01949000	0.00320800	-0.00357600	0.02566200	-0.00940000	-0.01241300	0.04399500	0.00830700	-0.03162000	-0.00042800	0.00010100	0.01116300	0.00682700	-0.00189700	-0.00006200
9	0.08000000	-0.01029600	0.04287700	0.02220200	0.03444800	-0.02362200	0.00598800	0.02113900	0.01834200	-0.01131100	0.02074400	0.00785700	0.00006300	0.02731100	-0.00710300	-0.01485700	0.04785900	0.00972300	-0.03084900	0.00067500	0.00093800	0.01047700	0.00491600	-0.00321400	-0.00311400
10	0.09000000	-0.00545700	0.03885200	0.02467300	0.03737900	-0.02262900	0.00696500	0.02397300	0.01805800	-0.01408100	0.02407100	0.00729900	-0.00050800	0.02319000	-0.00579500	-0.01239700	0.04270100	0.00654700	-0.02886200	-0.00153100	-0.00073800	0.01184800	0.00590400	-0.00525300	0.00004000
11	0.10000000	-0.00280700	0.03674400	0.02201400	0.03768300	-0.02103700	0.00547900	0.02465700	0.01623100	-0.01502600	0.02936600	0.00641000	0.00278200	0.02302900	-0.00744000	-0.01141900	0.04114500	0.00623900	-0.02736100	-0.00042800	0.00009900	0.01116200	0.00336800	-0.00134600	-0.00071300
12	0.11000000	-0.00430100	0.03203800	0.02591500	0.03473600	-0.02204600	0.00449200	0.02465500	0.01623000	-0.01502300	0.04441900	0.00388300	0.02049500	0.02062100	-0.00656200	-0.01228000	0.03573700	0.00450400	-0.02662500	-0.00094900	-0.00240800	0.01114800	0.00664600	-0.00348900	-0.00278800
13	0.12000000	0.00258700	0.02983000	0.02840600	0.03213500	-0.01991300	0.00615300	0.02688000	0.01322600	-0.01501000	0.02956000	0.01124000	-0.00039700	0.01930200	-0.00557900	-0.01178600	0.03013900	0.00160300	-0.02201900	-0.00009700	0.00212300	0.01340400	0.00542300	-0.00113800	-0.00248300
14	0.13000000	0.00520400	0.03223500	0.03292700	0.03489300	-0.02049100	0.00580400	0.02988100	0.01926900	-0.01519500	0.02325400	0.00905700	-0.00724800	0.02095000	-0.00328300	-0.01423100	0.02805400	0.00163200	-0.02814400	0.00054500	-0.00372300	0.01199100	0.00500700	-0.00241800	-0.00175000
15	0.14000000	0.00580800	0.02830500	0.03025100	0.02690500	-0.01718400	0.00535100	0.02326900	0.01216800	-0.01257800	0.02284700	0.00588700	-0.00251300	0.01550500	-0.00098600	-0.01128100	0.02516300	-0.00040200	-0.02390500	-0.00225400	-0.00061400	0.00807300	0.00375900	-0.00625700	0.00044800
16	0.15000000	0.01428600	0.02012100	0.03278900	0.02690000	-0.01718900	0.00534700	0.02310400	0.01354600	-0.01570000	0.02433100	0.00240000	0.00119900	0.01525000	-0.00700100	-0.01019800	0.02744900	0.00072700	-0.02164400	-0.00003700	-0.00205500	0.01269000	0.00682800	-0.00189600	-0.00006200
17	0.16000000	0.00873800	0.02219400	0.03841200	0.02264600	-0.01789100	0.00313700	0.01649500	0.01030000	-0.01335700	0.02097500	-0.00027800	0.00014100	0.01573800	-0.00207900	-0.01312900	0.02201500	0.00285400	-0.02731900	-0.00315600	-0.00408500	0.01251700	0.00336900	-0.00134600	-0.00071200
18	0.17000000	0.01189100	0.02335500	0.02854800	0.01987900	-0.01732200	0.00348000	0.01657600	0.01346400	-0.01206600	0.01621100	0.00052200	0.00025700	0.01145100	-0.00240700	-0.00969600	0.01909100	0.00340500	-0.02307700	-0.00406900	-0.00444100	0.01097400	0.00632200	-0.00397200	-0.00069200
19	0.18000000	0.01314400	0.02243100	0.02436800	0.01970200	-0.01889700	0.00215500	0.01049500	0.01362300	-0.01406800	0.01379100	0.00092600	-0.00212800	0.01145200	-0.00240800	-0.00969500	0.01613200	0.00397900	-0.02139500	-0.00373700	-0.00241700	0.01321600	0.00551500	-0.00034100	-0.00112000
20	0.19000000	0.01378500	0.02544100	0.02286400	0.01887400	-0.01542800	0.00076500	0.00611700	0.01123000	-0.01198600	0.00402200	0.00094400	-0.00197200	0.01013100	-0.00142300	-0.00920300	0.01818900	0.00397100	-0.02038700	-0.00484000	-0.00325500	0.01390100	0.00664700	-0.00348900	-0.00278800
21	0.20000000	0.01332200	0.01765000	0.02289300	0.01172100	-0.01558200	0.00170900	0.00311700	0.01289100	-0.01234300	-0.00258500	-0.00118500	0.00242600	0.01527700	0.00009700	-0.00942900	0.01271000	0.00227900	-0.01708600	-0.00523100	-0.00110400	0.01237100	0.00682900	-0.00189600	-0.00006200
22	0.21000000	0.01873900	0.01931000	0.01215700	0.01040800	-0.01528300	0.00048000	0.00019900	0.01001100	-0.01086500	-0.00642400	-0.00702400	0.00121800	0.01534800	-0.00263600	-0.01029800	0.01634000	0.00000400	-0.01757000	-0.00646600	-0.00660100	0.01457100	0.00277100	-0.00422000	-0.00270500
23	0.22000000	0.01484300	0.01436300	0.01122800	0.00278300	-0.00881800	0.00268200	-0.00194900	0.01232300	-0.00931700	-0.00618300	-0.00544400	0.00129300	0.00990000	-0.00033500	-0.00735300	0.01202700	0.00398700	-0.01827400	-0.00743800	-0.00278000	0.01374100	0.00336900	-0.00134600	-0.00071200
24	0.23000000	0.01975700	0.01275000	0.00770100	-0.00032900	-0.01138900	0.00038500	-0.00563700	0.00810400	-0.00818300	-0.00495800	-0.00402700	0.00329900	0.00732700	-0.00109600	-0.00723900	0.00335500	0.00173400	-0.01454600	-0.00743800	-0.00278100	0.01374000	0.00477400	-0.00210400	0.00170900
25	0.24000000	0.01695200	0.01513100	0.00465300	-0.00036700	-0.01293500	-0.00374100	-0.00057100	0.00867200	-0.01120700	-0.00687800	-0.00694600	0.00269600	0.00640000	0.00043800	-0.00957300	0.00541400	0.00172600	-0.01354000	-0.00445100	-0.00541300	0.01542500	0.00286200	-0.00342300	-0.00134200
26	0.25000000	0.01228900	0.01090800	0.00011100	-0.00765600	-0.01311400	0.00001000	-0.00648900	0.00745300	-0.01008800	-0.00330900	-0.00592500	0.00220100	0.00250600	0.00066300	-0.00896800	0.00153700	0.00287300	-0.01430200	-0.00873200	-0.00410400	0.01665200	0.00244600	-0.00470300	-0.00060900
27	0.26000000	0.01290300	0.00697000	-0.00256100	-0.00475700	-0.01366200	-0.00314200	-0.00726000	0.00996600	-0.01070400	-0.00642400	-0.00702300	0.00121900	0.00336200	0.00185900	-0.00576400	-0.00304300	0.00061600	-0.01368600	-0.00762900	-0.00326800	0.01596500	0.00459300	-0.00369800	-0.00101700
